<svg width="99" height="60" viewBox="0 0 99 60" fill="none" xmlns="http://www.w3.org/2000/svg">
<path d="M1.692 45.4H7.2C8.544 45.4 9.738 45.664 10.782 46.192C11.826 46.708 12.636 47.446 13.212 48.406C13.788 49.354 14.076 50.452 14.076 51.7C14.076 52.948 13.788 54.052 13.212 55.012C12.636 55.96 11.826 56.698 10.782 57.226C9.738 57.742 8.544 58 7.2 58H1.692V45.4ZM7.092 56.02C8.016 56.02 8.826 55.846 9.522 55.498C10.23 55.138 10.77 54.634 11.142 53.986C11.526 53.326 11.718 52.564 11.718 51.7C11.718 50.836 11.526 50.08 11.142 49.432C10.77 48.772 10.23 48.268 9.522 47.92C8.826 47.56 8.016 47.38 7.092 47.38H4.032V56.02H7.092ZM20.0191 48.28C21.4351 48.28 22.5151 48.622 23.2591 49.306C24.0151 49.978 24.3931 50.998 24.3931 52.366V58H22.2691V56.83C21.9931 57.25 21.5971 57.574 21.0811 57.802C20.5771 58.018 19.9651 58.126 19.2451 58.126C18.5251 58.126 17.8951 58.006 17.3551 57.766C16.8151 57.514 16.3951 57.172 16.0951 56.74C15.8071 56.296 15.6631 55.798 15.6631 55.246C15.6631 54.382 15.9811 53.692 16.6171 53.176C17.2651 52.648 18.2791 52.384 19.6591 52.384H22.1431V52.24C22.1431 51.568 21.9391 51.052 21.5311 50.692C21.1351 50.332 20.5411 50.152 19.7491 50.152C19.2091 50.152 18.6751 50.236 18.1471 50.404C17.6311 50.572 17.1931 50.806 16.8331 51.106L15.9511 49.468C16.4551 49.084 17.0611 48.79 17.7691 48.586C18.4771 48.382 19.2271 48.28 20.0191 48.28ZM19.7131 56.488C20.2771 56.488 20.7751 56.362 21.2071 56.11C21.6511 55.846 21.9631 55.474 22.1431 54.994V53.878H19.8211C18.5251 53.878 17.8771 54.304 17.8771 55.156C17.8771 55.564 18.0391 55.888 18.3631 56.128C18.6871 56.368 19.1371 56.488 19.7131 56.488ZM30.2507 58.126C29.4707 58.126 28.7087 58.024 27.9647 57.82C27.2207 57.616 26.6267 57.358 26.1827 57.046L27.0467 55.336C27.4787 55.624 27.9947 55.858 28.5947 56.038C29.2067 56.206 29.8067 56.29 30.3947 56.29C31.7387 56.29 32.4107 55.936 32.4107 55.228C32.4107 54.892 32.2367 54.658 31.8887 54.526C31.5527 54.394 31.0067 54.268 30.2507 54.148C29.4587 54.028 28.8107 53.89 28.3067 53.734C27.8147 53.578 27.3827 53.308 27.0107 52.924C26.6507 52.528 26.4707 51.982 26.4707 51.286C26.4707 50.374 26.8487 49.648 27.6047 49.108C28.3727 48.556 29.4047 48.28 30.7007 48.28C31.3607 48.28 32.0207 48.358 32.6807 48.514C33.3407 48.658 33.8807 48.856 34.3007 49.108L33.4367 50.818C32.6207 50.338 31.7027 50.098 30.6827 50.098C30.0227 50.098 29.5187 50.2 29.1707 50.404C28.8347 50.596 28.6667 50.854 28.6667 51.178C28.6667 51.538 28.8467 51.796 29.2067 51.952C29.5787 52.096 30.1487 52.234 30.9167 52.366C31.6847 52.486 32.3147 52.624 32.8067 52.78C33.2987 52.936 33.7187 53.2 34.0667 53.572C34.4267 53.944 34.6067 54.472 34.6067 55.156C34.6067 56.056 34.2167 56.776 33.4367 57.316C32.6567 57.856 31.5947 58.126 30.2507 58.126ZM41.9984 48.28C43.2104 48.28 44.1824 48.634 44.9144 49.342C45.6464 50.05 46.0124 51.1 46.0124 52.492V58H43.7624V52.78C43.7624 51.94 43.5644 51.31 43.1684 50.89C42.7724 50.458 42.2084 50.242 41.4764 50.242C40.6484 50.242 39.9944 50.494 39.5144 50.998C39.0344 51.49 38.7944 52.204 38.7944 53.14V58H36.5444V44.644H38.7944V49.504C39.1664 49.108 39.6224 48.808 40.1624 48.604C40.7144 48.388 41.3264 48.28 41.9984 48.28ZM49.0826 45.4H54.5906C55.9346 45.4 57.1286 45.664 58.1726 46.192C59.2166 46.708 60.0266 47.446 60.6026 48.406C61.1786 49.354 61.4666 50.452 61.4666 51.7C61.4666 52.948 61.1786 54.052 60.6026 55.012C60.0266 55.96 59.2166 56.698 58.1726 57.226C57.1286 57.742 55.9346 58 54.5906 58H49.0826V45.4ZM54.4826 56.02C55.4066 56.02 56.2166 55.846 56.9126 55.498C57.6206 55.138 58.1606 54.634 58.5326 53.986C58.9166 53.326 59.1086 52.564 59.1086 51.7C59.1086 50.836 58.9166 50.08 58.5326 49.432C58.1606 48.772 57.6206 48.268 56.9126 47.92C56.2166 47.56 55.4066 47.38 54.4826 47.38H51.4226V56.02H54.4826ZM63.7377 48.388H65.9877V58H63.7377V48.388ZM64.8717 46.804C64.4637 46.804 64.1217 46.678 63.8457 46.426C63.5697 46.162 63.4317 45.838 63.4317 45.454C63.4317 45.07 63.5697 44.752 63.8457 44.5C64.1217 44.236 64.4637 44.104 64.8717 44.104C65.2797 44.104 65.6217 44.23 65.8977 44.482C66.1737 44.722 66.3117 45.028 66.3117 45.4C66.3117 45.796 66.1737 46.132 65.8977 46.408C65.6337 46.672 65.2917 46.804 64.8717 46.804ZM74.3948 48.28C75.6068 48.28 76.5788 48.634 77.3108 49.342C78.0428 50.05 78.4088 51.1 78.4088 52.492V58H76.1588V52.78C76.1588 51.94 75.9608 51.31 75.5648 50.89C75.1688 50.458 74.6048 50.242 73.8728 50.242C73.0448 50.242 72.3908 50.494 71.9108 50.998C71.4308 51.49 71.1908 52.204 71.1908 53.14V58H68.9408V48.388H71.0828V49.63C71.4548 49.186 71.9228 48.85 72.4868 48.622C73.0508 48.394 73.6868 48.28 74.3948 48.28ZM90.387 53.248C90.387 53.404 90.375 53.626 90.351 53.914H82.809C82.941 54.622 83.283 55.186 83.835 55.606C84.399 56.014 85.095 56.218 85.923 56.218C86.979 56.218 87.849 55.87 88.533 55.174L89.739 56.56C89.307 57.076 88.761 57.466 88.101 57.73C87.441 57.994 86.697 58.126 85.869 58.126C84.813 58.126 83.883 57.916 83.079 57.496C82.275 57.076 81.651 56.494 81.207 55.75C80.775 54.994 80.559 54.142 80.559 53.194C80.559 52.258 80.769 51.418 81.189 50.674C81.621 49.918 82.215 49.33 82.971 48.91C83.727 48.49 84.579 48.28 85.527 48.28C86.463 48.28 87.297 48.49 88.029 48.91C88.773 49.318 89.349 49.9 89.757 50.656C90.177 51.4 90.387 52.264 90.387 53.248ZM85.527 50.08C84.807 50.08 84.195 50.296 83.691 50.728C83.199 51.148 82.899 51.712 82.791 52.42H88.245C88.149 51.724 87.855 51.16 87.363 50.728C86.871 50.296 86.259 50.08 85.527 50.08ZM94.6903 49.792C95.3383 48.784 96.4783 48.28 98.1103 48.28V50.422C97.9183 50.386 97.7443 50.368 97.5883 50.368C96.7123 50.368 96.0283 50.626 95.5363 51.142C95.0443 51.646 94.7983 52.378 94.7983 53.338V58H92.5483V48.388H94.6903V49.792Z" fill="#F48C06"/>
<g clip-path="url(#clip0_2_27)">
<path d="M54.0801 24.1215H54.9514C55.5674 24.1232 56.1775 24.0027 56.7466 23.7669C57.3157 23.5312 57.8323 23.1848 58.2666 22.748L63.0625 17.9141L61.7606 16.6016L56.8633 21.4988L55.8455 20.4811L60.7428 15.5832L59.3952 14.276L54.5161 19.1545L53.5012 18.1367L58.3985 13.2389L57.086 11.9375L52.252 16.7334C51.8151 17.1678 51.4688 17.6845 51.2331 18.2537C50.9973 18.8229 50.8768 19.4332 50.8785 20.0492V20.9199L48.3514 23.4471L36.8125 11.9375C34.218 15.1525 35.7502 21.0611 38.6711 23.9826L43.6809 28.9924C45.2366 30.548 45.5453 30.6869 47.3102 29.9768C47.6905 29.8238 47.8287 29.8408 48.1832 30.1947L48.945 30.9055C49.1166 31.0812 49.1207 31.1328 49.1207 31.4691V31.7938C49.1207 33.0289 49.9106 33.7391 50.4309 34.2687L56.5 40.0625L60.7188 35.8438L51.553 26.6486L54.0801 24.1215Z" fill="#F48C06"/>
<path d="M47.3225 31.7768C45.5752 32.1348 44.5035 32.4646 42.4545 30.4156C42.4217 30.3828 42.3877 30.3512 42.3549 30.3184L41.2123 29.1758L34.9375 35.375L39.625 40.0625L48.0625 31.625L47.3225 31.7768Z" fill="#F48C06"/>
</g>
<defs>
<clipPath id="clip0_2_27">
<rect width="30" height="30" fill="white" transform="translate(34 11)"/>
</clipPath>
</defs>
</svg>
