<svg width="30" height="30" viewBox="0 0 30 30" fill="none" xmlns="http://www.w3.org/2000/svg">
<g id="ion:restaurant-sharp" clip-path="url(#clip0_101_11)">
<path id="Vector" d="M20.0801 13.1215H20.9513C21.5673 13.1232 22.1775 13.0027 22.7466 12.7669C23.3156 12.5312 23.8323 12.1848 24.2666 11.748L29.0625 6.91406L27.7605 5.60156L22.8633 10.4988L21.8455 9.48105L26.7427 4.5832L25.3951 3.27598L20.516 8.15449L19.5011 7.13672L24.3984 2.23887L23.0859 0.9375L18.2519 5.7334C17.8151 6.16779 17.4688 6.68454 17.233 7.25371C16.9972 7.82287 16.8767 8.43316 16.8785 9.04922V9.91992L14.3513 12.4471L2.81247 0.9375C0.217941 4.15254 1.75017 10.0611 4.67107 12.9826L9.68083 17.9924C11.2365 19.548 11.5453 19.6869 13.3101 18.9768C13.6904 18.8238 13.8287 18.8408 14.1832 19.1947L14.9449 19.9055C15.1166 20.0812 15.1207 20.1328 15.1207 20.4691V20.7938C15.1207 22.0289 15.9105 22.7391 16.4308 23.2687L22.5 29.0625L26.7187 24.8438L17.5529 15.6486L20.0801 13.1215Z" fill="#F48C06"/>
<path id="Vector_2" d="M13.3225 20.7768C11.5752 21.1348 10.5035 21.4646 8.45449 19.4156C8.42168 19.3828 8.3877 19.3512 8.35488 19.3184L7.2123 18.1758L0.9375 24.375L5.625 29.0625L14.0625 20.625L13.3225 20.7768Z" fill="#F48C06"/>
</g>
<defs>
<clipPath id="clip0_101_11">
<rect width="30" height="30" fill="white"/>
</clipPath>
</defs>
</svg>
